<svg width="24" height="24" viewBox="0 0 24 24" fill="none" xmlns="http://www.w3.org/2000/svg">
<path d="M12 0.0439453C18.6274 0.0439453 24 5.41653 24 12.0439C24 18.1792 19.3955 23.2384 13.4538 23.956V15.7109L16.7001 15.7109L17.3734 12.0439H13.4538V10.747C13.4538 9.77812 13.6439 9.10734 14.0799 8.67878C14.5159 8.25021 15.1979 8.06388 16.1817 8.06388C16.4307 8.06388 16.6599 8.06635 16.8633 8.07131C17.1591 8.07851 17.4002 8.09095 17.568 8.10861V4.78442C17.501 4.76579 17.4218 4.74715 17.3331 4.72881C17.1321 4.68725 16.8822 4.64719 16.6136 4.61201C16.0523 4.53848 15.4093 4.48625 14.9594 4.48625C13.1424 4.48625 11.7692 4.87497 10.8107 5.68013C9.65388 6.65185 9.10108 8.23016 9.10108 10.4638V12.0439H6.62659V15.7109H9.10108V23.6906C3.87432 22.3938 0 17.6717 0 12.0439C0 5.41653 5.37259 0.0439453 12 0.0439453Z" fill="#D3C6B4"/>
</svg>
